<?xml version="1.0" encoding="utf-8"?>
<svg width="167px" height="93px" viewBox="0 0 167 93" fill="none" xmlns="http://www.w3.org/2000/svg">
	<style type="text/css">
		.st0 {
			fill: none;
			stroke: #b4e900;
			stroke-width: 17;
			stroke-miterlimit: 10;
			stroke-dasharray: 700;
			stroke-dashoffset: 700;
			animation: strokeAnimation 1s linear infinite;
		}
		@keyframes strokeAnimation {
			0% { stroke-dashoffset: 700; }
			100% { stroke-dashoffset: 0; }
		}
	</style>
	<path class="st0" d="M98.37,29.64c6.15-6.24,16.93-15.96,31.92-15.96c12.38,0,23.43,9.49,25.93,21.87 c1.96,9.73,0.45,24.99-12.6,37.69c-11.57,11.27-29.9,11.49-39.55,3.5c-11.22-9.29-11.24-18.09-15.46-33.96 c-5.17-19.46-22.26-32.35-38.84-30.72S18.24,24.76,12.9,42.67c-4.82,16.18,0.21,30.16,9.21,34.96c11.44,6.1,26.09,3.48,36.36-5.82 c10.5-9.5,11.07-21.68,11.07-21.68H40.72"/>
</svg>
